# xmcd CD database file
# Copyright (C) 1996 Ti Kan
#
# Track frame offsets:
#	183
#	11463
#	22578
#	36343
#	50455
#	62853
#	73808
#	89250
#	102728
#	117870
#
# Disc length: 1728 seconds
#
# Revision: 1
# Processed by: cddbd v1.4b41PL1 Copyright (c) Steve Scherf et al.
# Submitted via: EasyCD 2.21 - (C) 1996 Greg Leichner
#
DISCID=8106be0a
DTITLE=Conway Twitty - The Legendary Conway Twitty
DYEAR=1900
DGENRE=
TTITLE0=It's Only Make Believe
TTITLE1=Hello Darlin'
TTITLE2=15 Years Ago
TTITLE3=You've Never Been This Far Before
TTITLE4=I've Hurt Her More(Than She Loves Me)
TTITLE5=As Soon As I Hang Up The Phone
TTITLE6=Touch The Hand
TTITLE7=The Games That Daddies Play
TTITLE8=Lost Her Love On Our Last Date
TTITLE9=Lying Here With Linda On My Mind
EXTD=
EXTT0=
EXTT1=
EXTT2=
EXTT3=
EXTT4=
EXTT5=
EXTT6=
EXTT7=
EXTT8=
EXTT9=
PLAYORDER=
